<svg xmlns="http://www.w3.org/2000/svg" viewBox="0 0 900 560"><defs><linearGradient id="bg" x2="0" y2="1"><stop stop-color="#c98650"/><stop offset="1" stop-color="#4f4035"/></linearGradient></defs><rect width="900" height="560" fill="url(#bg)"/><g opacity=".35" fill="#e6d6b8"><circle cx="90" cy="100" r="55"/><circle cx="800" cy="120" r="70"/><circle cx="720" cy="440" r="90"/></g><g transform="translate(120 130)"><rect width="250" height="300" rx="28" fill="#f7f0e3"/><ellipse cx="125" cy="0" rx="125" ry="25" fill="#d8c4a9"/><path d="M125 -5 C100 -40 150 -55 125 -90 C105 -55 145 -40 125 -5" fill="#f5bd5a"/><rect x="48" y="125" width="154" height="70" rx="12" fill="#a8b5a0"/><text x="125" y="168" text-anchor="middle" font-family="Georgia" font-size="24" fill="#fff">HAND POURED</text></g><g transform="translate(510 185)"><rect width="170" height="245" rx="25" fill="#efe2cf"/><ellipse cx="85" cy="0" rx="85" ry="20" fill="#c8a982"/><path d="M85 -10 C67 -35 100 -48 85 -72 C70 -48 98 -35 85 -10" fill="#f5bd5a"/><circle cx="85" cy="128" r="44" fill="#b98761"/></g><path d="M0 470 Q450 410 900 470" fill="none" stroke="#e8d9c0" stroke-width="28" opacity=".25"/></svg>