<svg xmlns="http://www.w3.org/2000/svg" viewBox="0 0 900 560"><defs><linearGradient id="g" x2="1" y2="1"><stop stop-color="#f2e5d5"/><stop offset="1" stop-color="#c9d2c1"/></linearGradient></defs><rect width="900" height="560" fill="url(#g)"/><g transform="translate(115 110)"><path d="M20 100 L55 330 Q125 370 195 330 L230 100 Z" fill="#d99b73" stroke="#8a624b" stroke-width="6"/><path d="M25 100 Q125 25 225 100 Q190 205 125 190 Q60 205 25 100" fill="#fff7ed" stroke="#8a624b" stroke-width="6"/><circle cx="125" cy="70" r="20" fill="#c9786f"/><path d="M115 40 Q125 5 135 40" fill="none" stroke="#d99a4b" stroke-width="12"/></g><g transform="translate(365 135)"><path d="M20 100 L55 305 Q125 345 195 305 L230 100 Z" fill="#f1d1b7" stroke="#8a624b" stroke-width="6"/><path d="M25 100 Q125 25 225 100 Q185 195 125 185 Q65 195 25 100" fill="#fffaf2" stroke="#8a624b" stroke-width="6"/><circle cx="125" cy="72" r="18" fill="#a8b5a0"/></g><g transform="translate(610 110)"><path d="M20 100 L55 330 Q125 370 195 330 L230 100 Z" fill="#d7b28b" stroke="#8a624b" stroke-width="6"/><path d="M25 100 Q125 25 225 100 Q185 200 125 190 Q65 200 25 100" fill="#fff5df" stroke="#8a624b" stroke-width="6"/><circle cx="125" cy="70" r="20" fill="#d99a4b"/></g><text x="450" y="500" text-anchor="middle" font-family="Georgia,serif" font-size="38" fill="#6e4e3e" letter-spacing="4">CUPCAKE MINIS</text></svg>