<svg xmlns="http://www.w3.org/2000/svg" viewBox="0 0 900 560"><defs><linearGradient id="g" x2="1" y2="1"><stop stop-color="#f4eadc"/><stop offset="1" stop-color="#d8c6b1"/></linearGradient><radialGradient id="c"><stop stop-color="#fff8e8"/><stop offset="1" stop-color="#c9a77b"/></radialGradient></defs><rect width="900" height="560" fill="url(#g)"/><circle cx="120" cy="90" r="75" fill="#a8b5a0" opacity=".45"/><circle cx="800" cy="470" r="120" fill="#9b6f55" opacity=".18"/><g transform="translate(250 125)"><rect x="0" y="80" width="180" height="210" rx="22" fill="#f8f1e5" stroke="#8a624b" stroke-width="6"/><ellipse cx="90" cy="80" rx="90" ry="22" fill="#e5d6c2" stroke="#8a624b" stroke-width="6"/><path d="M90 60 C82 35 102 20 90 0" fill="none" stroke="#8a624b" stroke-width="6"/><path d="M90 0 C72 18 110 28 90 52 C78 36 82 15 90 0" fill="#d99a4b"/><rect x="38" y="135" width="104" height="48" rx="10" fill="#a8b5a0" opacity=".75"/></g><g transform="translate(520 175)"><rect x="0" y="90" width="130" height="155" rx="18" fill="#fff8ed" stroke="#8a624b" stroke-width="5"/><path d="M65 72 C55 45 75 30 65 8 C48 30 80 42 65 72" fill="#d99a4b"/><circle cx="65" cy="145" r="34" fill="url(#c)"/></g><path d="M65 470 Q450 380 835 470" fill="none" stroke="#8a624b" stroke-width="18" opacity=".35"/><text x="450" y="520" text-anchor="middle" font-family="Georgia,serif" font-size="34" fill="#6e4e3e" letter-spacing="5">SASSY BELLE</text></svg>